<?xml version="1.0" standalone="no"?><!DOCTYPE svg PUBLIC "-//W3C//DTD SVG 1.1//EN" "http://www.w3.org/Graphics/SVG/1.1/DTD/svg11.dtd"><svg t="1691570717294" class="icon" viewBox="0 0 1024 1024" version="1.1" xmlns="http://www.w3.org/2000/svg" p-id="1942" width="64" height="64" xmlns:xlink="http://www.w3.org/1999/xlink"><path d="M132 408h64a4 4 0 0 0 4-4V200h204a4 4 0 0 0 4-4v-64a4 4 0 0 0-4-4H168a40 40 0 0 0-40 40v236a4 4 0 0 0 4 4z m272 416H200V620a4 4 0 0 0-4-4h-64a4 4 0 0 0-4 4v236a40 40 0 0 0 40 40h236a4 4 0 0 0 4-4v-64a4 4 0 0 0-4-4z m452-696H620a4 4 0 0 0-4 4v64a4 4 0 0 0 4 4h204v204a4 4 0 0 0 4 4h64a4 4 0 0 0 4-4V168a40 40 0 0 0-40-40z m36 488h-64a4 4 0 0 0-4 4v204H620a4 4 0 0 0-4 4v64a4 4 0 0 0 4 4h236a40 40 0 0 0 40-40V620a4 4 0 0 0-4-4zM382 410a28 28 0 1 0-28-28 28 28 0 0 0 28 28z m-1 260a28 28 0 1 0-28-28 28 28 0 0 0 28 28z m261-316a28 28 0 1 0 28 28 28 28 0 0 0-28-28z m-170-82H292a20.1 20.1 0 0 0-20 20v180a20.1 20.1 0 0 0 20 20h180a20.1 20.1 0 0 0 20-20V292a20.1 20.1 0 0 0-20-20z m-36 164H328V328h108z m35 96H291a20.1 20.1 0 0 0-20 20v180a20.1 20.1 0 0 0 20 20h180a20.1 20.1 0 0 0 20-20V552a20.1 20.1 0 0 0-20-20z m-36 164H327V588h108z m117-204h180a20.1 20.1 0 0 0 20-20V292a20.1 20.1 0 0 0-20-20H552a20.1 20.1 0 0 0-20 20v180a20.1 20.1 0 0 0 20 20z m36-164h108v108H588z m-52 243h84.9a4 4 0 0 0 4-4v-31a4 4 0 0 0-4-4H536a4 4 0 0 0-4 4v31a4 4 0 0 0 4 4z m31.1 24.4H536a4 4 0 0 0-4 4v38.3a4 4 0 0 0 4 4h31.1a4 4 0 0 0 4-4v-38.3a4 4 0 0 0-4-4zM634.7 723v-39.9h49.7a4 4 0 0 0 4-4v-33.4a4 4 0 0 0-4-4h-84.8a4 4 0 0 0-4 4V723a4 4 0 0 0 4 4h31a4 4 0 0 0 4.1-4zM752 536a4 4 0 0 0-4-4h-31.1a4 4 0 0 0-4 4v101.7a4 4 0 0 0 4 4H748a4 4 0 0 0 4-4z m-67.6-4h-31a4 4 0 0 0-4.1 4v77.3a4 4 0 0 0 4.1 4h31a4 4 0 0 0 4-4V536a4 4 0 0 0-4-4zM567.1 666.1H536a4 4 0 0 0-4 4V748a4 4 0 0 0 4 4h31.1a4 4 0 0 0 4-4v-77.9a4 4 0 0 0-4-4z m92 47.9v33.4a4 4 0 0 0 4 4H748a4 4 0 0 0 4-4v-74.9a4 4 0 0 0-4-4h-31.1a4 4 0 0 0-4 4V710h-49.8a4 4 0 0 0-4 4z" p-id="1943"></path></svg>